<svg version="1.1" id="svg10" sodipodi:docname="flutter_logo.svg" inkscape:version="1.1.1 (3bf5ae0d25, 2021-09-20)" xmlns:inkscape="http://www.inkscape.org/namespaces/inkscape" xmlns:sodipodi="http://sodipodi.sourceforge.net/DTD/sodipodi-0.dtd" xmlns="http://www.w3.org/2000/svg" xmlns:svg="http://www.w3.org/2000/svg" viewBox="4.58 4 213.38 263.6">
  <defs id="defs14"/>
  <sodipodi:namedview id="namedview12" pagecolor="#ffffff" bordercolor="#666666" borderopacity="1.0" inkscape:pageshadow="2" inkscape:pageopacity="0.0" inkscape:pagecheckerboard="0" showgrid="false" inkscape:zoom="1.1217209" inkscape:cx="476.5" inkscape:cy="135.95182" inkscape:window-width="1920" inkscape:window-height="1017" inkscape:window-x="-8" inkscape:window-y="1072" inkscape:window-maximized="1" inkscape:current-layer="svg10"/>
  <path d="M136.28 4.09L217.95 4 80.93 140.95l-35.71 35.51-40.63-40.68L136.28 4.09zm-.76 122.28c1.06-1.4 3.01-.71 4.49-.89l77.87.02-70.97 70.9-40.84-40.59 29.45-29.44z" fill="#44d1fd" id="path2"/>
  <path fill="#1fbcfd" d="M65.36 196.47l40.71-40.66 40.84 40.59.17.18-41 40.62-40.72-40.73z" id="path6"/>
  <path fill="#08589c" d="M106.08 237.2l41-40.62 70.83 70.9c-26.68.06-53.35-.02-80.02.04-1.52.34-2.46-1.05-3.43-1.91l-28.38-28.41z" id="path8"/>
</svg>